PathFileType	4	(X/Y/Z)	C:/Users/opensim2020/Desktop/walking_exp_matlab/subject06_walking12_straigt_02.trc																																																																																																																																														
DataRate	CameraRate	NumFrames	NumMarkers	Units	OrigDataRate	OrigDataStartFrame	OrigNumFrames																																																																																																																																										
100	100	4	48	mm	100	1466	215																																																																																																																																										
Frame#	Time	LFHD			RFHD			LBHD			RBHD			C7			T10			CLAV			STRN			RBAK			LSHO			LUPA			LELB			LFRM			LWRA			LWRB			LFIN			RSHO			RUPA			RELB			RFRM			RWRA			RWRB			RFIN			LASI			RASI			LPSI			RPSI			LTHI			LKNE			LTIB			LANK			LHEE			LTOE			RTHI			RKNE			RTIB			RANK			RHEE			RTOE			*39			*40			*41			*42			*43			*44			*45			*46			*47		
		X1	Y1	Z1	X2	Y2	Z2	X3	Y3	Z3	X4	Y4	Z4	X5	Y5	Z5	X6	Y6	Z6	X7	Y7	Z7	X8	Y8	Z8	X9	Y9	Z9	X10	Y10	Z10	X11	Y11	Z11	X12	Y12	Z12	X13	Y13	Z13	X14	Y14	Z14	X15	Y15	Z15	X16	Y16	Z16	X17	Y17	Z17	X18	Y18	Z18	X19	Y19	Z19	X20	Y20	Z20	X21	Y21	Z21	X22	Y22	Z22	X23	Y23	Z23	X24	Y24	Z24	X25	Y25	Z25	X26	Y26	Z26	X27	Y27	Z27	X28	Y28	Z28	X29	Y29	Z29	X30	Y30	Z30	X31	Y31	Z31	X32	Y32	Z32	X33	Y33	Z33	X34	Y34	Z34	X35	Y35	Z35	X36	Y36	Z36	X37	Y37	Z37	X38	Y38	Z38	X39	Y39	Z39	X40	Y40	Z40	X41	Y41	Z41	X42	Y42	Z42	X43	Y43	Z43	X44	Y44	Z44	X45	Y45	Z45	X46	Y46	Z46	X47	Y47	Z47	X48	Y48	Z48
																																																																																																																																																	
27	0.26	-1474.7666	1652.28577	1052.66296	-1343.25305	1640.69727	1058.81958	-1481.64075	1594.31787	1184.56873	-1353.05701	1588.67273	1189.24353	-1421.28125	1432.65002	1183.81592	-1408.35339	1103.18347	1201.67468	-1419.92529	1361.28699	1068.73999	-1420.60779	1186.66199	1020.96643	-1337.91821	1260.57617	1249.89282	-1582.23254	1388.72144	1130.87744	-1643.40076	1194.23157	1185.17017	-1644.02161	1087.74463	1223.59912	-1655.31787	938.10992	1249.797	-1600.66577	813.11035	1236.81189	-1645.89001	827.04004	1290.99377	-1633.56482	735.78796	1283.75696	-1260.61389	1393.78577	1119.66077	-1168.6178	1194.98108	1120.64612	-1154.70239	1081.6272	1078.63037	-1143.40393	989.48328	1003.99817	-1187.42383	912.72321	878.75647	-1144.89539	882.45758	920.68097	-1144.30884	844.84192	846.88788	-1509.5083	952.23376	1014.96112	-1290.95776	947.2876	1033.90918	-1494.69092	972.89801	1176.13013	-1326.55811	973.31757	1181.14343	-1588.68848	642.34338	1028.87769	-1560.70398	487.28989	987.09131	-1559.93774	234.2588	952.67041	-1527.6936	69.89622	897.38422	-1479.14282	48.39814	929.25977	-1527.10413	64.25719	747.42462	-1253.98682	614.2121	1135.99268	-1276.58655	489.03201	1159.92957	-1288.72314	280.15869	1335.6095	-1335.90186	133.34502	1449.40186	-1380.98804	133.0658	1495.52905	-1342.46057	36.57342	1333.6925	-1420.21582	1688.12952	1156.60938	NaN	NaN	NaN	NaN	NaN	NaN	NaN	NaN	NaN	NaN	NaN	NaN	NaN	NaN	NaN	NaN	NaN	NaN	NaN	NaN	NaN	NaN	NaN	NaN
28	0.27	-1475.76257	1653.79346	1042.02124	-1344.35938	1641.86609	1048.66589	-1483.23059	1595.84998	1173.87915	-1354.73315	1589.91895	1178.95825	-1423.52161	1433.27686	1173.42261	-1410.4552	1103.46326	1188.03894	-1421.78296	1362.86499	1057.82239	-1422.48816	1188.56213	1008.383	-1341.02441	1259.94958	1238.23792	-1584.30383	1390.0636	1119.66235	-1645.90295	1195.12341	1172.27844	-1646.61658	1088.30505	1209.77051	-1658.15405	938.46362	1234.61646	-1603.63342	813.45844	1220.75281	-1648.52905	826.66205	1274.61194	-1636.56885	735.83643	1267.12305	-1262.54285	1394.3385	1109.76086	-1170.78723	1195.13513	1110.48474	-1156.81445	1081.41602	1069.35583	-1144.98901	987.94916	996.09161	-1187.88831	908.77747	871.84784	-1145.677	879.44257	914.63422	-1144.7334	840.1723	841.31274	-1510.19092	953.13794	1001.20416	-1292.4054	948.37231	1020.4884	-1496.35559	974.38953	1161.88831	-1328.31689	974.06213	1167.60144	-1589.97705	642.88135	1018.3031	-1562.68591	486.86844	981.01196	-1561.59827	234.80946	946.53369	-1529.0498	69.80703	892.87427	-1480.67261	49.96274	926.35358	-1525.49048	57.99371	743.29205	-1254.27002	614.45288	1122.00098	-1276.46582	489.22903	1145.08691	-1289.10498	284.31119	1325.02222	-1336.10242	140.71088	1442.20898	-1381.63049	142.60193	1487.57422	-1342.93201	36.74341	1332.81604	-1421.46375	1689.47192	1146.12598	NaN	NaN	NaN	NaN	NaN	NaN	NaN	NaN	NaN	NaN	NaN	NaN	NaN	NaN	NaN	NaN	NaN	NaN	NaN	NaN	NaN	NaN	NaN	NaN
29	0.28	-1476.70508	1655.33643	1031.37695	-1345.4408	1643.10022	1038.3811	-1484.89893	1597.68481	1163.24634	-1356.39893	1591.32959	1168.75366	-1425.76587	1434.27747	1162.85168	-1412.59375	1103.8783	1174.33191	-1423.60315	1364.60779	1046.99609	-1424.36951	1190.73328	995.64386	-1344.23108	1259.48145	1226.46106	-1586.41113	1391.56128	1108.43323	-1648.47339	1196.20862	1159.0177	-1649.33264	1088.87732	1195.40588	-1661.16223	938.89606	1218.88489	-1606.82043	813.935	1203.88562	-1652.18469	827.15631	1258.18298	-1639.76807	735.8847	1249.62952	-1264.34119	1395.08667	1099.89441	-1173.13245	1195.43958	1100.45166	-1158.96631	1081.38916	1059.9425	-1146.68689	986.48242	988.27411	-1188.29102	904.56622	865.40704	-1146.41382	876.25385	909.06689	-1144.81201	835.34302	836.90253	-1511.4353	954.44495	986.81152	-1293.94324	949.77386	1007.02582	-1497.8479	976.27808	1147.83618	-1329.99963	975.00793	1153.91113	-1591.34998	644.31006	1008.19275	-1564.97253	486.94028	974.63092	-1564.14893	235.31313	940.65936	-1530.06531	68.99802	889.87109	-1482.07068	50.95541	924.18878	-1524.44434	51.63214	740.5578	-1254.43005	614.90527	1107.30359	-1275.91736	489.22083	1129.35144	-1289.43689	288.56995	1313.15527	-1336.74695	148.42873	1434.12207	-1382.57239	152.84926	1478.35693	-1343.29114	36.93171	1332.05664	-1422.74646	1691.0824	1135.56396	NaN	NaN	NaN	NaN	NaN	NaN	NaN	NaN	NaN	NaN	NaN	NaN	NaN	NaN	NaN	NaN	NaN	NaN	NaN	NaN	NaN	NaN	NaN	NaN
30	0.29	-1477.65259	1656.64929	1020.54175	-1346.53967	1644.09302	1028.07288	-1486.57996	1599.47302	1152.55371	-1358.17822	1592.81873	1158.65662	-1427.86963	1435.34521	1152.10059	-1414.80884	1104.43689	1160.76697	-1425.42554	1366.34387	1035.97766	-1426.31116	1193.03601	982.83569	-1347.27063	1259.17236	1214.49316	-1588.31812	1393.13184	1097.06396	-1651.02161	1197.36011	1145.37109	-1652.04895	1089.7218	1180.60632	-1664.31726	939.47577	1202.54749	-1610.42053	814.737	1185.96021	-1655.474	827.14734	1240.5531	-1643.28528	736.13745	1231.31299	-1266.15955	1395.96313	1090.09155	-1175.59998	1195.9397	1090.71179	-1161.34009	1081.67847	1050.44775	-1148.38025	985.12695	980.74066	-1188.68567	900.19537	859.49628	-1147.08191	873.04218	904.16718	-1144.81873	830.44482	833.1308	-1512.73706	955.95679	972.36835	-1295.52649	951.22028	994.04663	-1499.02429	978.06055	1134.03345	-1331.66711	976.03296	1140.1167	-1592.62061	645.86957	998.13062	-1567.37061	487.48877	967.07074	-1566.28699	235.03398	935.85205	-1530.67395	68.63603	887.98669	-1482.93799	51.62481	922.8775	-1524.76501	48.14796	738.9574	-1254.51428	615.33447	1092.09277	-1274.96594	489.37766	1112.72314	-1288.87793	293.28836	1301.03235	-1337.19531	156.55661	1424.98889	-1383.57373	163.00818	1467.85193	-1343.37524	37.46148	1330.99316	-1424.03711	1692.65771	1124.8418	NaN	NaN	NaN	NaN	NaN	NaN	NaN	NaN	NaN	NaN	NaN	NaN	NaN	NaN	NaN	NaN	NaN	NaN	NaN	NaN	NaN	NaN	NaN	NaN
